HIERARCHY
ROOT Hips
{
	OFFSET 0.000000 0.000000 0.000000
	CHANNELS 6 Xposition Yposition Zposition Zrotation Yrotation Xrotation 
	JOINT LeftUpLeg_virtual
	{
		OFFSET 0.000000 0.000000 0.000000
		CHANNELS 3 Zrotation Yrotation Xrotation
		JOINT LeftUpLeg
		{
			OFFSET 8.479694 -4.795517 -0.379053
			CHANNELS 3 Zrotation Yrotation Xrotation
			JOINT LeftLeg
			{
				OFFSET 0.485052 -32.551468 0.112863
				CHANNELS 3 Zrotation Yrotation Xrotation
				JOINT LeftFoot
				{
					OFFSET 0.438033 -32.635670 -3.012641
					CHANNELS 3 Zrotation Yrotation Xrotation
					JOINT LeftToeBase
					{
						OFFSET 0.970169 -13.225353 11.864223
						CHANNELS 3 Zrotation Yrotation Xrotation
						End Site
						{
							OFFSET 0.000000 0.000000 0.000000
						}
					}
				}
			}
		}
	}
	JOINT RightUpLeg_virtual
	{
		OFFSET 0.000000 0.000000 0.000000
		CHANNELS 3 Zrotation Yrotation Xrotation
		JOINT RightUpLeg
		{
			OFFSET -8.479694 -4.795517 -0.379053
			CHANNELS 3 Zrotation Yrotation Xrotation
			JOINT RightLeg
			{
				OFFSET -0.484100 -32.551483 0.112903
				CHANNELS 3 Zrotation Yrotation Xrotation
				JOINT RightFoot
				{
					OFFSET -0.438985 -32.635651 -3.012681
					CHANNELS 3 Zrotation Yrotation Xrotation
					JOINT RightToeBase
					{
						OFFSET -0.970169 -13.225354 11.864223
						CHANNELS 3 Zrotation Yrotation Xrotation
						End Site
						{
							OFFSET 0.000000 0.000000 0.000000
						}
					}
				}
			}
		}
	}
	JOINT Spine_virtual
	{
		OFFSET 0.000000 0.000000 0.000000
		CHANNELS 3 Zrotation Yrotation Xrotation
		JOINT Spine
		{
			OFFSET 0.000000 7.722015 1.166203
			CHANNELS 3 Zrotation Yrotation Xrotation
			JOINT Spine1
			{
				OFFSET 0.000000 12.024086 0.248766
				CHANNELS 3 Zrotation Yrotation Xrotation
				JOINT Spine2
				{
					OFFSET -0.000000 11.503036 -0.491240
					CHANNELS 3 Zrotation Yrotation Xrotation
					JOINT Neck_virtual
					{
						OFFSET 0.000000 0.000000 0.000000
						CHANNELS 3 Zrotation Yrotation Xrotation
						JOINT Neck
						{
							OFFSET 0.000000 18.430687 -3.123054
							CHANNELS 3 Zrotation Yrotation Xrotation
							JOINT Head
							{
								OFFSET -0.000000 9.051071 1.034021
								CHANNELS 3 Zrotation Yrotation Xrotation
								End Site
								{
									OFFSET 0.000000 0.000000 0.000000
								}
							}
						}
					}
					JOINT LeftShoulder_virtual
					{
						OFFSET 0.000000 0.000000 0.000000
						CHANNELS 3 Zrotation Yrotation Xrotation
						JOINT LeftShoulder
						{
							OFFSET 6.197824 13.665230 -4.064723
							CHANNELS 3 Zrotation Yrotation Xrotation
							JOINT LeftArm
							{
								OFFSET 7.778132 -0.187073 -1.709282
								CHANNELS 3 Zrotation Yrotation Xrotation
								JOINT LeftForeArm
								{
									OFFSET 21.954697 0.000000 -2.041093
									CHANNELS 3 Zrotation Yrotation Xrotation
									JOINT LeftHand
									{
										OFFSET 22.992908 0.000000 -0.870901
										CHANNELS 3 Zrotation Yrotation Xrotation
										End Site
										{
											OFFSET 0.000000 0.000000 0.000000
										}
									}
								}
							}
						}
					}
					JOINT RightShoulder_virtual
					{
						OFFSET 0.000000 0.000000 0.000000
						CHANNELS 3 Zrotation Yrotation Xrotation
						JOINT RightShoulder
						{
							OFFSET -6.197824 13.665230 -4.064723
							CHANNELS 3 Zrotation Yrotation Xrotation
							JOINT RightArm
							{
								OFFSET -7.778132 -0.187073 -1.709282
								CHANNELS 3 Zrotation Yrotation Xrotation
								JOINT RightForeArm
								{
									OFFSET -21.954697 0.000000 -2.041093
									CHANNELS 3 Zrotation Yrotation Xrotation
									JOINT RightHand
									{
										OFFSET -22.992908 0.000000 -0.870901
										CHANNELS 3 Zrotation Yrotation Xrotation
										End Site
										{
											OFFSET 0.000000 0.000000 0.000000
										}
									}
								}
							}
						}
					}
				}
			}
		}
	}
}
MOTION
Frames: 8
Frame Time: 0.033333
-9.002621 81.085640 -19.121145 179.863278 -4.456912 179.945022 -1.720650 1.131760 16.058446 3.839359 -5.080854 -21.889966 2.619771 2.456191 24.494974 1.315021 -8.013931 -15.317734 0.000000 0.000000 0.000000 2.186025 -0.658816 17.219645 -4.812197 1.840171 -25.826663 -0.643663 6.074497 30.106077 11.450892 0.319870 -14.198826 0.000000 0.000000 0.000000 2.832726 3.057840 3.850394 -0.493640 -2.049196 -7.837810 -0.505308 -2.137165 7.043596 -0.014128 0.023118 -0.025454 -0.771671 -0.391139 7.520137 -1.742223 2.437208 0.068880 0.000000 0.000000 0.000000 1.060491 0.093967 4.539765 -11.845723 -4.187287 3.242725 -52.861662 -14.051793 19.091441 4.583652 -27.298837 4.547707 0.000000 0.000000 0.000000 -3.645501 1.585669 3.845774 28.619739 -0.126608 8.152005 48.546519 3.391792 8.121294 -1.916506 28.031286 -1.744772 0.000000 0.000000 0.000000 
-9.004522 81.095261 -19.182823 179.816164 -4.204970 179.943014 -1.660045 1.201392 15.995637 3.733627 -5.113307 -21.925790 2.633481 2.678639 24.336845 1.609325 -7.814457 -16.011896 0.000000 0.000000 0.000000 2.245348 -0.995010 17.029914 -4.654418 1.269389 -25.882242 -0.996340 5.509301 29.788463 10.970738 -0.268317 -14.878245 0.000000 0.000000 0.000000 2.826051 3.075853 3.797719 -0.514134 -1.967243 -7.817536 -0.501436 -2.094081 7.050690 -0.008460 0.065435 -0.059501 -0.750969 -0.330568 7.575357 -1.769441 2.305995 0.115121 0.000000 0.000000 0.000000 1.075826 0.149002 4.592179 -11.861414 -4.173906 3.267333 -52.914182 -13.938456 18.893270 4.641198 -27.328630 4.387404 0.000000 0.000000 0.000000 -3.626343 1.657894 3.869432 28.703371 -0.129111 8.170101 48.557522 3.479012 8.170533 -1.954233 28.164990 -1.845855 0.000000 0.000000 0.000000 
-9.009084 81.096451 -19.249289 179.860232 -4.212938 179.895285 -1.607717 1.260599 15.986802 3.727155 -5.104985 -21.847431 2.635689 2.622220 24.371631 1.646038 -7.876482 -16.033065 0.000000 0.000000 0.000000 2.299708 -0.941391 17.005067 -4.656846 1.287865 -25.755648 -0.976388 5.519529 29.840250 10.954576 -0.244440 -14.872214 0.000000 0.000000 0.000000 2.860274 3.184768 3.722009 -0.494647 -2.040471 -7.816731 -0.465045 -2.192033 7.068086 0.039341 0.185728 -0.013298 -0.791449 -0.514153 7.511245 -1.802298 2.488998 0.174501 0.000000 0.000000 0.000000 1.011726 0.071076 4.549737 -11.980375 -4.095334 3.334968 -53.123391 -13.750743 18.652514 4.770725 -27.680610 4.272490 0.000000 0.000000 0.000000 -3.669859 1.541406 3.848307 28.639794 -0.056971 8.114879 48.787386 3.538760 8.211876 -2.022067 28.412371 -1.978343 0.000000 0.000000 0.000000 
-9.020008 81.094238 -19.315950 179.880340 -4.349029 179.911636 -1.537858 1.336158 15.948338 3.675493 -5.177977 -21.817146 2.614201 2.505622 24.385556 1.704963 -7.929878 -16.016737 0.000000 0.000000 0.000000 2.370294 -0.875896 16.995715 -4.701006 1.268920 -25.689950 -0.962543 5.446210 29.919736 10.824024 -0.309912 -14.917043 0.000000 0.000000 0.000000 2.882204 3.184217 3.631282 -0.488894 -1.923182 -7.892648 -0.415670 -2.105689 7.080023 0.037636 0.102429 0.008094 -0.735854 -0.555765 7.514923 -1.783743 2.487641 0.233380 0.000000 0.000000 0.000000 1.046147 -0.018106 4.611745 -12.122496 -4.020885 3.309422 -53.448413 -13.476185 18.474830 4.740693 -28.382300 4.319558 0.000000 0.000000 0.000000 -3.642962 1.485940 3.795092 28.592319 -0.146416 8.143521 49.092449 3.561479 7.951596 -1.892264 28.700305 -1.961632 0.000000 0.000000 0.000000 
-9.026172 81.091164 -19.370899 179.890613 -4.455341 179.961401 -1.485016 1.458645 15.930494 3.701217 -5.233344 -21.831395 2.579621 2.456456 24.373161 1.725376 -8.016269 -16.003707 0.000000 0.000000 0.000000 2.451155 -0.794082 17.006532 -4.731883 1.204937 -25.689977 -0.955686 5.368913 29.998092 10.704614 -0.337686 -14.963140 0.000000 0.000000 0.000000 2.899328 3.253899 3.512993 -0.479811 -1.953170 -7.961519 -0.366835 -2.166873 7.104131 0.040247 0.077013 -0.047292 -0.705746 -0.633411 7.597989 -1.828337 2.528544 0.265247 0.000000 0.000000 0.000000 1.080083 0.005800 4.643750 -12.336680 -3.959981 3.323341 -53.907582 -13.135783 18.684727 4.714615 -29.443491 4.332890 0.000000 0.000000 0.000000 -3.593439 1.492786 3.944819 28.503737 -0.067043 8.124756 49.386786 3.589022 8.100993 -1.850362 28.963294 -2.079150 0.000000 0.000000 0.000000 
-9.024733 81.093155 -19.406977 179.842487 -4.504892 179.915297 -1.532312 1.559924 15.980223 3.742698 -5.232978 -21.828578 2.549478 2.449651 24.381771 1.714347 -8.113160 -16.003094 0.000000 0.000000 0.000000 2.496358 -0.736436 17.074920 -4.825762 1.194534 -25.709163 -0.921206 5.284975 30.082120 10.559295 -0.376374 -15.001935 0.000000 0.000000 0.000000 2.893340 3.324135 3.525170 -0.506194 -1.941459 -8.062600 -0.339582 -2.171264 7.139340 0.017925 0.069682 -0.016165 -0.614792 -0.513531 7.593301 -1.851914 2.523918 0.376447 0.000000 0.000000 0.000000 1.170777 0.020829 4.679864 -12.543897 -3.932838 3.326038 -54.380829 -12.948007 19.485855 4.732017 -30.719712 4.368174 0.000000 0.000000 0.000000 -3.487595 1.493595 3.979278 28.454933 -0.067704 8.093200 49.697187 3.499335 8.315894 -1.820099 29.230874 -2.184177 0.000000 0.000000 0.000000 
-9.018167 81.099419 -19.426376 179.845479 -4.600384 179.920939 -1.510186 1.578541 15.992978 3.721395 -5.227196 -21.857423 2.525829 2.321818 24.370641 1.733350 -8.141480 -15.968151 0.000000 0.000000 0.000000 2.519244 -0.751796 17.110618 -4.887426 1.144829 -25.764595 -0.844335 5.233332 30.169697 10.480082 -0.317345 -14.976400 0.000000 0.000000 0.000000 2.905369 3.319304 3.440272 -0.523628 -1.952342 -8.113057 -0.297916 -2.199876 7.222239 0.018105 0.057941 -0.085294 -0.605936 -0.511128 7.674314 -1.908902 2.540477 0.504348 0.000000 0.000000 0.000000 1.193835 0.032344 4.702979 -12.745054 -4.032327 3.411506 -54.822978 -12.857656 20.689159 4.737272 -32.175785 4.467453 0.000000 0.000000 0.000000 -3.459746 1.539248 4.044343 28.337907 -0.092238 8.087430 49.844002 3.506491 8.251861 -1.647293 29.420149 -2.159811 0.000000 0.000000 0.000000 
-8.985024 81.109329 -19.412956 179.837911 -4.621284 179.925570 -1.573460 1.444882 15.992138 3.762019 -5.196694 -21.854657 2.563938 2.348204 24.396816 1.729420 -8.116496 -15.927045 0.000000 0.000000 0.000000 2.514911 -0.906514 17.110153 -4.963224 1.135197 -25.846814 -0.686669 5.141935 30.190102 10.334898 -0.336413 -14.934641 0.000000 0.000000 0.000000 2.927339 3.261334 3.379254 -0.569483 -1.878452 -8.174271 -0.273558 -2.156166 7.262360 -0.006987 0.085616 -0.098172 -0.518811 -0.530198 7.757946 -1.889171 2.426212 0.627298 0.000000 0.000000 0.000000 1.287562 0.001146 4.789738 -12.839023 -4.273325 3.402005 -55.081999 -12.860792 21.955769 4.624385 -33.652639 4.655558 0.000000 0.000000 0.000000 -3.361428 1.464496 4.124388 28.198376 -0.154318 8.016689 49.841823 3.487788 8.288327 -1.620292 29.590999 -2.226380 0.000000 0.000000 0.000000 
